<mxfile host="app.diagrams.net" agent="Mozilla/5.0 (Macintosh; Intel Mac OS X 10_15_7) AppleWebKit/537.36 (KHTML, like Gecko) Chrome/131.0.0.0 Safari/537.36" version="25.0.3">
  <diagram name="第 1 页" id="CtOnWX5mIkKangR4ngKK">
    <mxGraphModel dx="2248" dy="654" grid="1" gridSize="10" guides="1" tooltips="1" connect="1" arrows="1" fold="1" page="1" pageScale="1" pageWidth="827" pageHeight="1169" math="0" shadow="0">
      <root>
        <mxCell id="0" />
        <mxCell id="1" parent="0" />
        <mxCell id="q6kVz9pOgNvTbz7X49iz-1" value="&lt;p&gt;&lt;br&gt;&lt;/p&gt;" style="rounded=0;whiteSpace=wrap;html=1;align=left;" parent="1" vertex="1">
          <mxGeometry x="80" y="40" width="160" height="200" as="geometry" />
        </mxCell>
        <mxCell id="q6kVz9pOgNvTbz7X49iz-4" value="&lt;font style=&quot;font-size: 10px;&quot;&gt;Page A&lt;/font&gt;" style="text;html=1;align=center;verticalAlign=middle;whiteSpace=wrap;rounded=0;" parent="1" vertex="1">
          <mxGeometry x="80" y="40" width="40" height="20" as="geometry" />
        </mxCell>
        <mxCell id="q6kVz9pOgNvTbz7X49iz-12" style="edgeStyle=orthogonalEdgeStyle;rounded=0;orthogonalLoop=1;jettySize=auto;html=1;exitX=1;exitY=0.5;exitDx=0;exitDy=0;entryX=0;entryY=0.5;entryDx=0;entryDy=0;" parent="1" source="q6kVz9pOgNvTbz7X49iz-5" target="q6kVz9pOgNvTbz7X49iz-7" edge="1">
          <mxGeometry relative="1" as="geometry" />
        </mxCell>
        <mxCell id="q6kVz9pOgNvTbz7X49iz-5" value="&amp;lt;a href=&#39;Page B&#39;&amp;gt;B&amp;lt;/a&amp;gt;" style="text;html=1;align=center;verticalAlign=middle;whiteSpace=wrap;rounded=0;" parent="1" vertex="1">
          <mxGeometry x="80" y="130" width="160" height="30" as="geometry" />
        </mxCell>
        <mxCell id="q6kVz9pOgNvTbz7X49iz-6" value="&lt;p&gt;&lt;br&gt;&lt;/p&gt;" style="rounded=0;whiteSpace=wrap;html=1;align=left;" parent="1" vertex="1">
          <mxGeometry x="320" y="40" width="160" height="200" as="geometry" />
        </mxCell>
        <mxCell id="q6kVz9pOgNvTbz7X49iz-7" value="&lt;font style=&quot;font-size: 10px;&quot;&gt;Page B&lt;/font&gt;" style="text;html=1;align=center;verticalAlign=middle;whiteSpace=wrap;rounded=0;" parent="1" vertex="1">
          <mxGeometry x="320" y="40" width="40" height="20" as="geometry" />
        </mxCell>
        <mxCell id="q6kVz9pOgNvTbz7X49iz-13" style="edgeStyle=orthogonalEdgeStyle;rounded=0;orthogonalLoop=1;jettySize=auto;html=1;exitX=1;exitY=0.5;exitDx=0;exitDy=0;entryX=0;entryY=0.5;entryDx=0;entryDy=0;" parent="1" source="q6kVz9pOgNvTbz7X49iz-8" target="q6kVz9pOgNvTbz7X49iz-10" edge="1">
          <mxGeometry relative="1" as="geometry" />
        </mxCell>
        <mxCell id="q6kVz9pOgNvTbz7X49iz-8" value="&amp;lt;a href=&#39;Page C&#39;&amp;gt;C&amp;lt;/a&amp;gt;" style="text;html=1;align=center;verticalAlign=middle;whiteSpace=wrap;rounded=0;" parent="1" vertex="1">
          <mxGeometry x="320" y="130" width="160" height="30" as="geometry" />
        </mxCell>
        <mxCell id="q6kVz9pOgNvTbz7X49iz-9" value="&lt;p&gt;&lt;br&gt;&lt;/p&gt;" style="rounded=0;whiteSpace=wrap;html=1;align=left;" parent="1" vertex="1">
          <mxGeometry x="560" y="40" width="160" height="200" as="geometry" />
        </mxCell>
        <mxCell id="q6kVz9pOgNvTbz7X49iz-10" value="&lt;font style=&quot;font-size: 10px;&quot;&gt;Page C&lt;/font&gt;" style="text;html=1;align=center;verticalAlign=middle;whiteSpace=wrap;rounded=0;" parent="1" vertex="1">
          <mxGeometry x="560" y="40" width="40" height="20" as="geometry" />
        </mxCell>
        <mxCell id="q6kVz9pOgNvTbz7X49iz-14" style="edgeStyle=orthogonalEdgeStyle;rounded=0;orthogonalLoop=1;jettySize=auto;html=1;exitX=1;exitY=0.5;exitDx=0;exitDy=0;entryX=0;entryY=0.5;entryDx=0;entryDy=0;" parent="1" source="q6kVz9pOgNvTbz7X49iz-11" target="q6kVz9pOgNvTbz7X49iz-4" edge="1">
          <mxGeometry relative="1" as="geometry">
            <Array as="points">
              <mxPoint x="740" y="145" />
              <mxPoint x="740" y="280" />
              <mxPoint x="60" y="280" />
              <mxPoint x="60" y="50" />
            </Array>
          </mxGeometry>
        </mxCell>
        <mxCell id="q6kVz9pOgNvTbz7X49iz-11" value="&amp;lt;a href=&#39;Page A&#39;&amp;gt;A&amp;lt;/a&amp;gt;" style="text;html=1;align=center;verticalAlign=middle;whiteSpace=wrap;rounded=0;" parent="1" vertex="1">
          <mxGeometry x="560" y="130" width="160" height="30" as="geometry" />
        </mxCell>
        <mxCell id="No4g82Whn9Lu0QJXy-N2-3" value="PSERP Keywords" style="ellipse;whiteSpace=wrap;html=1;fillColor=none;" parent="1" vertex="1">
          <mxGeometry x="255" y="655" width="100" height="130" as="geometry" />
        </mxCell>
        <mxCell id="No4g82Whn9Lu0QJXy-N2-4" value="Showroom Keywords" style="ellipse;whiteSpace=wrap;html=1;fillColor=none;" parent="1" vertex="1">
          <mxGeometry x="255" y="480" width="100" height="130" as="geometry" />
        </mxCell>
        <mxCell id="No4g82Whn9Lu0QJXy-N2-5" value="" style="ellipse;whiteSpace=wrap;html=1;fillColor=none;" parent="1" vertex="1">
          <mxGeometry x="332" y="572" width="30" height="30" as="geometry" />
        </mxCell>
        <mxCell id="No4g82Whn9Lu0QJXy-N2-6" value="" style="ellipse;whiteSpace=wrap;html=1;fillColor=none;align=left;" parent="1" vertex="1">
          <mxGeometry x="190" y="590" width="140" height="90" as="geometry" />
        </mxCell>
        <mxCell id="No4g82Whn9Lu0QJXy-N2-8" value="" style="ellipse;whiteSpace=wrap;html=1;fillColor=none;align=right;" parent="1" vertex="1">
          <mxGeometry x="280" y="590" width="140" height="90" as="geometry" />
        </mxCell>
        <mxCell id="No4g82Whn9Lu0QJXy-N2-9" value="PDP Keywords" style="text;html=1;align=center;verticalAlign=middle;whiteSpace=wrap;rounded=0;" parent="1" vertex="1">
          <mxGeometry x="216" y="610" width="64" height="30" as="geometry" />
        </mxCell>
        <mxCell id="No4g82Whn9Lu0QJXy-N2-10" value="CPP Keywords" style="text;html=1;align=center;verticalAlign=middle;whiteSpace=wrap;rounded=0;" parent="1" vertex="1">
          <mxGeometry x="330" y="610" width="64" height="30" as="geometry" />
        </mxCell>
        <mxCell id="No4g82Whn9Lu0QJXy-N2-11" value="" style="ellipse;whiteSpace=wrap;html=1;fillColor=none;" parent="1" vertex="1">
          <mxGeometry x="335" y="668" width="30" height="30" as="geometry" />
        </mxCell>
        <mxCell id="No4g82Whn9Lu0QJXy-N2-12" value="" style="ellipse;whiteSpace=wrap;html=1;fillColor=none;" parent="1" vertex="1">
          <mxGeometry x="249" y="572" width="30" height="30" as="geometry" />
        </mxCell>
        <mxCell id="No4g82Whn9Lu0QJXy-N2-13" value="" style="ellipse;whiteSpace=wrap;html=1;fillColor=none;" parent="1" vertex="1">
          <mxGeometry x="246" y="669" width="30" height="30" as="geometry" />
        </mxCell>
        <mxCell id="Url5Zu-6LV8npw6_dzej-3" style="edgeStyle=orthogonalEdgeStyle;rounded=0;orthogonalLoop=1;jettySize=auto;html=1;exitX=0;exitY=0.5;exitDx=0;exitDy=0;entryX=0;entryY=0.5;entryDx=0;entryDy=0;" edge="1" parent="1" source="No4g82Whn9Lu0QJXy-N2-15" target="No4g82Whn9Lu0QJXy-N2-12">
          <mxGeometry relative="1" as="geometry" />
        </mxCell>
        <mxCell id="Url5Zu-6LV8npw6_dzej-4" style="edgeStyle=orthogonalEdgeStyle;rounded=0;orthogonalLoop=1;jettySize=auto;html=1;exitX=1;exitY=0.5;exitDx=0;exitDy=0;entryX=1;entryY=0.5;entryDx=0;entryDy=0;" edge="1" parent="1" source="No4g82Whn9Lu0QJXy-N2-15" target="No4g82Whn9Lu0QJXy-N2-5">
          <mxGeometry relative="1" as="geometry" />
        </mxCell>
        <mxCell id="Url5Zu-6LV8npw6_dzej-6" style="edgeStyle=orthogonalEdgeStyle;rounded=0;orthogonalLoop=1;jettySize=auto;html=1;exitX=0;exitY=0.25;exitDx=0;exitDy=0;entryX=0;entryY=0.5;entryDx=0;entryDy=0;" edge="1" parent="1" source="No4g82Whn9Lu0QJXy-N2-15" target="No4g82Whn9Lu0QJXy-N2-13">
          <mxGeometry relative="1" as="geometry">
            <Array as="points">
              <mxPoint x="170" y="428" />
              <mxPoint x="170" y="684" />
            </Array>
          </mxGeometry>
        </mxCell>
        <mxCell id="Url5Zu-6LV8npw6_dzej-7" style="edgeStyle=orthogonalEdgeStyle;rounded=0;orthogonalLoop=1;jettySize=auto;html=1;exitX=1;exitY=0.25;exitDx=0;exitDy=0;entryX=1;entryY=0.5;entryDx=0;entryDy=0;" edge="1" parent="1" source="No4g82Whn9Lu0QJXy-N2-15" target="No4g82Whn9Lu0QJXy-N2-11">
          <mxGeometry relative="1" as="geometry">
            <Array as="points">
              <mxPoint x="440" y="428" />
              <mxPoint x="440" y="683" />
            </Array>
          </mxGeometry>
        </mxCell>
        <mxCell id="No4g82Whn9Lu0QJXy-N2-15" value="CSERP Keywords" style="text;html=1;align=center;verticalAlign=middle;whiteSpace=wrap;rounded=0;" parent="1" vertex="1">
          <mxGeometry x="280" y="420" width="60" height="30" as="geometry" />
        </mxCell>
        <mxCell id="Url5Zu-6LV8npw6_dzej-21" style="edgeStyle=orthogonalEdgeStyle;rounded=0;orthogonalLoop=1;jettySize=auto;html=1;exitX=1;exitY=0.5;exitDx=0;exitDy=0;entryX=0;entryY=0.5;entryDx=0;entryDy=0;" edge="1" parent="1" source="Url5Zu-6LV8npw6_dzej-8" target="Url5Zu-6LV8npw6_dzej-10">
          <mxGeometry relative="1" as="geometry" />
        </mxCell>
        <mxCell id="Url5Zu-6LV8npw6_dzej-22" value="calculate or get" style="edgeLabel;html=1;align=center;verticalAlign=middle;resizable=0;points=[];" vertex="1" connectable="0" parent="Url5Zu-6LV8npw6_dzej-21">
          <mxGeometry x="-0.375" y="1" relative="1" as="geometry">
            <mxPoint x="15" y="1" as="offset" />
          </mxGeometry>
        </mxCell>
        <mxCell id="Url5Zu-6LV8npw6_dzej-26" style="edgeStyle=orthogonalEdgeStyle;rounded=0;orthogonalLoop=1;jettySize=auto;html=1;exitX=0.75;exitY=1;exitDx=0;exitDy=0;entryX=0;entryY=0.5;entryDx=0;entryDy=0;" edge="1" parent="1" source="Url5Zu-6LV8npw6_dzej-8" target="Url5Zu-6LV8npw6_dzej-23">
          <mxGeometry relative="1" as="geometry" />
        </mxCell>
        <mxCell id="Url5Zu-6LV8npw6_dzej-27" value="search and recommend" style="edgeLabel;html=1;align=center;verticalAlign=middle;resizable=0;points=[];" vertex="1" connectable="0" parent="Url5Zu-6LV8npw6_dzej-26">
          <mxGeometry x="-0.1446" y="3" relative="1" as="geometry">
            <mxPoint y="1" as="offset" />
          </mxGeometry>
        </mxCell>
        <mxCell id="Url5Zu-6LV8npw6_dzej-31" style="edgeStyle=orthogonalEdgeStyle;rounded=0;orthogonalLoop=1;jettySize=auto;html=1;exitX=0.5;exitY=1;exitDx=0;exitDy=0;entryX=0;entryY=0.5;entryDx=0;entryDy=0;" edge="1" parent="1" source="Url5Zu-6LV8npw6_dzej-8" target="Url5Zu-6LV8npw6_dzej-30">
          <mxGeometry relative="1" as="geometry" />
        </mxCell>
        <mxCell id="Url5Zu-6LV8npw6_dzej-33" value="search and recommend" style="edgeLabel;html=1;align=center;verticalAlign=middle;resizable=0;points=[];" vertex="1" connectable="0" parent="Url5Zu-6LV8npw6_dzej-31">
          <mxGeometry relative="1" as="geometry">
            <mxPoint y="1" as="offset" />
          </mxGeometry>
        </mxCell>
        <mxCell id="Url5Zu-6LV8npw6_dzej-8" value="keyword" style="rounded=1;whiteSpace=wrap;html=1;strokeColor=default;align=center;verticalAlign=middle;fontFamily=Helvetica;fontSize=12;fontColor=default;fillColor=default;" vertex="1" parent="1">
          <mxGeometry x="60" y="1080" width="80" height="30" as="geometry" />
        </mxCell>
        <mxCell id="Url5Zu-6LV8npw6_dzej-15" style="edgeStyle=orthogonalEdgeStyle;rounded=0;orthogonalLoop=1;jettySize=auto;html=1;exitX=1;exitY=0.25;exitDx=0;exitDy=0;entryX=0;entryY=0.5;entryDx=0;entryDy=0;" edge="1" parent="1" source="Url5Zu-6LV8npw6_dzej-10" target="Url5Zu-6LV8npw6_dzej-11">
          <mxGeometry relative="1" as="geometry">
            <Array as="points">
              <mxPoint x="380" y="1088" />
              <mxPoint x="380" y="1015" />
            </Array>
          </mxGeometry>
        </mxCell>
        <mxCell id="Url5Zu-6LV8npw6_dzej-16" value="all" style="edgeLabel;html=1;align=center;verticalAlign=middle;resizable=0;points=[];" vertex="1" connectable="0" parent="Url5Zu-6LV8npw6_dzej-15">
          <mxGeometry x="0.0207" y="1" relative="1" as="geometry">
            <mxPoint as="offset" />
          </mxGeometry>
        </mxCell>
        <mxCell id="Url5Zu-6LV8npw6_dzej-17" style="edgeStyle=orthogonalEdgeStyle;rounded=0;orthogonalLoop=1;jettySize=auto;html=1;exitX=1;exitY=0.5;exitDx=0;exitDy=0;entryX=0;entryY=0.5;entryDx=0;entryDy=0;" edge="1" parent="1" source="Url5Zu-6LV8npw6_dzej-10" target="Url5Zu-6LV8npw6_dzej-12">
          <mxGeometry relative="1" as="geometry" />
        </mxCell>
        <mxCell id="Url5Zu-6LV8npw6_dzej-18" value="low competition" style="edgeLabel;html=1;align=center;verticalAlign=middle;resizable=0;points=[];" vertex="1" connectable="0" parent="Url5Zu-6LV8npw6_dzej-17">
          <mxGeometry x="0.05" y="2" relative="1" as="geometry">
            <mxPoint y="1" as="offset" />
          </mxGeometry>
        </mxCell>
        <mxCell id="Url5Zu-6LV8npw6_dzej-19" style="edgeStyle=orthogonalEdgeStyle;rounded=0;orthogonalLoop=1;jettySize=auto;html=1;exitX=1;exitY=0.75;exitDx=0;exitDy=0;entryX=0;entryY=0.5;entryDx=0;entryDy=0;" edge="1" parent="1" source="Url5Zu-6LV8npw6_dzej-10" target="Url5Zu-6LV8npw6_dzej-13">
          <mxGeometry relative="1" as="geometry">
            <Array as="points">
              <mxPoint x="380" y="1103" />
              <mxPoint x="380" y="1175" />
            </Array>
          </mxGeometry>
        </mxCell>
        <mxCell id="Url5Zu-6LV8npw6_dzej-20" value="high competition" style="edgeLabel;html=1;align=center;verticalAlign=middle;resizable=0;points=[];" vertex="1" connectable="0" parent="Url5Zu-6LV8npw6_dzej-19">
          <mxGeometry x="-0.2104" y="-1" relative="1" as="geometry">
            <mxPoint x="11" as="offset" />
          </mxGeometry>
        </mxCell>
        <mxCell id="Url5Zu-6LV8npw6_dzej-10" value="relate keywords" style="rounded=1;whiteSpace=wrap;html=1;" vertex="1" parent="1">
          <mxGeometry x="260" y="1080" width="80" height="30" as="geometry" />
        </mxCell>
        <mxCell id="Url5Zu-6LV8npw6_dzej-11" value="CSERP" style="rounded=1;whiteSpace=wrap;html=1;" vertex="1" parent="1">
          <mxGeometry x="460" y="1000" width="80" height="30" as="geometry" />
        </mxCell>
        <mxCell id="Url5Zu-6LV8npw6_dzej-12" value="PSERP" style="rounded=1;whiteSpace=wrap;html=1;" vertex="1" parent="1">
          <mxGeometry x="460" y="1080" width="80" height="30" as="geometry" />
        </mxCell>
        <mxCell id="Url5Zu-6LV8npw6_dzej-13" value="Showroom" style="rounded=1;whiteSpace=wrap;html=1;" vertex="1" parent="1">
          <mxGeometry x="460" y="1160" width="80" height="30" as="geometry" />
        </mxCell>
        <mxCell id="Url5Zu-6LV8npw6_dzej-23" value="PDP" style="rounded=1;whiteSpace=wrap;html=1;" vertex="1" parent="1">
          <mxGeometry x="460" y="1240" width="80" height="30" as="geometry" />
        </mxCell>
        <mxCell id="Url5Zu-6LV8npw6_dzej-47" style="edgeStyle=orthogonalEdgeStyle;rounded=0;orthogonalLoop=1;jettySize=auto;html=1;exitX=1;exitY=0.5;exitDx=0;exitDy=0;entryX=0;entryY=1;entryDx=0;entryDy=0;" edge="1" parent="1" source="Url5Zu-6LV8npw6_dzej-28" target="Url5Zu-6LV8npw6_dzej-8">
          <mxGeometry relative="1" as="geometry" />
        </mxCell>
        <mxCell id="Url5Zu-6LV8npw6_dzej-48" value="search content" style="edgeLabel;html=1;align=center;verticalAlign=middle;resizable=0;points=[];" vertex="1" connectable="0" parent="Url5Zu-6LV8npw6_dzej-47">
          <mxGeometry x="-0.6098" relative="1" as="geometry">
            <mxPoint y="1" as="offset" />
          </mxGeometry>
        </mxCell>
        <mxCell id="Url5Zu-6LV8npw6_dzej-28" value="Showroom" style="rounded=1;whiteSpace=wrap;html=1;" vertex="1" parent="1">
          <mxGeometry x="-200" y="1080" width="80" height="30" as="geometry" />
        </mxCell>
        <mxCell id="Url5Zu-6LV8npw6_dzej-39" style="edgeStyle=orthogonalEdgeStyle;rounded=0;orthogonalLoop=1;jettySize=auto;html=1;exitX=1;exitY=0.5;exitDx=0;exitDy=0;entryX=0.75;entryY=0;entryDx=0;entryDy=0;" edge="1" parent="1" source="Url5Zu-6LV8npw6_dzej-29" target="Url5Zu-6LV8npw6_dzej-8">
          <mxGeometry relative="1" as="geometry" />
        </mxCell>
        <mxCell id="Url5Zu-6LV8npw6_dzej-40" value="sumary" style="edgeLabel;html=1;align=center;verticalAlign=middle;resizable=0;points=[];" vertex="1" connectable="0" parent="Url5Zu-6LV8npw6_dzej-39">
          <mxGeometry x="0.2951" y="4" relative="1" as="geometry">
            <mxPoint as="offset" />
          </mxGeometry>
        </mxCell>
        <mxCell id="Url5Zu-6LV8npw6_dzej-29" value="PDP" style="rounded=1;whiteSpace=wrap;html=1;" vertex="1" parent="1">
          <mxGeometry x="-200" y="760" width="80" height="30" as="geometry" />
        </mxCell>
        <mxCell id="Url5Zu-6LV8npw6_dzej-30" value="CPP" style="rounded=1;whiteSpace=wrap;html=1;" vertex="1" parent="1">
          <mxGeometry x="460" y="1320" width="80" height="30" as="geometry" />
        </mxCell>
        <mxCell id="Url5Zu-6LV8npw6_dzej-41" style="edgeStyle=orthogonalEdgeStyle;rounded=0;orthogonalLoop=1;jettySize=auto;html=1;exitX=1;exitY=0.5;exitDx=0;exitDy=0;entryX=0;entryY=0.25;entryDx=0;entryDy=0;" edge="1" parent="1" source="Url5Zu-6LV8npw6_dzej-34" target="Url5Zu-6LV8npw6_dzej-8">
          <mxGeometry relative="1" as="geometry" />
        </mxCell>
        <mxCell id="Url5Zu-6LV8npw6_dzej-42" value="summary" style="edgeLabel;html=1;align=center;verticalAlign=middle;resizable=0;points=[];" vertex="1" connectable="0" parent="Url5Zu-6LV8npw6_dzej-41">
          <mxGeometry x="-0.6688" y="1" relative="1" as="geometry">
            <mxPoint y="1" as="offset" />
          </mxGeometry>
        </mxCell>
        <mxCell id="Url5Zu-6LV8npw6_dzej-34" value="CPP" style="rounded=1;whiteSpace=wrap;html=1;" vertex="1" parent="1">
          <mxGeometry x="-200" y="840" width="80" height="30" as="geometry" />
        </mxCell>
        <mxCell id="Url5Zu-6LV8npw6_dzej-45" style="edgeStyle=orthogonalEdgeStyle;rounded=0;orthogonalLoop=1;jettySize=auto;html=1;exitX=1;exitY=0.5;exitDx=0;exitDy=0;entryX=0;entryY=0.75;entryDx=0;entryDy=0;" edge="1" parent="1" source="Url5Zu-6LV8npw6_dzej-35" target="Url5Zu-6LV8npw6_dzej-8">
          <mxGeometry relative="1" as="geometry" />
        </mxCell>
        <mxCell id="Url5Zu-6LV8npw6_dzej-46" value="search content" style="edgeLabel;html=1;align=center;verticalAlign=middle;resizable=0;points=[];" vertex="1" connectable="0" parent="Url5Zu-6LV8npw6_dzej-45">
          <mxGeometry x="-0.0237" y="-2" relative="1" as="geometry">
            <mxPoint x="1" as="offset" />
          </mxGeometry>
        </mxCell>
        <mxCell id="Url5Zu-6LV8npw6_dzej-35" value="CSERP" style="rounded=1;whiteSpace=wrap;html=1;" vertex="1" parent="1">
          <mxGeometry x="-200" y="1000" width="80" height="30" as="geometry" />
        </mxCell>
        <mxCell id="Url5Zu-6LV8npw6_dzej-43" style="edgeStyle=orthogonalEdgeStyle;rounded=0;orthogonalLoop=1;jettySize=auto;html=1;exitX=1;exitY=0.5;exitDx=0;exitDy=0;entryX=0.25;entryY=0;entryDx=0;entryDy=0;" edge="1" parent="1" source="Url5Zu-6LV8npw6_dzej-36" target="Url5Zu-6LV8npw6_dzej-8">
          <mxGeometry relative="1" as="geometry" />
        </mxCell>
        <mxCell id="Url5Zu-6LV8npw6_dzej-44" value="search content" style="edgeLabel;html=1;align=center;verticalAlign=middle;resizable=0;points=[];" vertex="1" connectable="0" parent="Url5Zu-6LV8npw6_dzej-43">
          <mxGeometry x="-0.5687" y="2" relative="1" as="geometry">
            <mxPoint x="15" y="2" as="offset" />
          </mxGeometry>
        </mxCell>
        <mxCell id="Url5Zu-6LV8npw6_dzej-36" value="PSERP" style="rounded=1;whiteSpace=wrap;html=1;" vertex="1" parent="1">
          <mxGeometry x="-200" y="920" width="80" height="30" as="geometry" />
        </mxCell>
        <mxCell id="Url5Zu-6LV8npw6_dzej-49" value="inside-business" style="rounded=1;whiteSpace=wrap;html=1;" vertex="1" parent="1">
          <mxGeometry x="-200" y="1160" width="80" height="30" as="geometry" />
        </mxCell>
        <mxCell id="Url5Zu-6LV8npw6_dzej-50" value="CPV" style="rounded=1;whiteSpace=wrap;html=1;" vertex="1" parent="1">
          <mxGeometry x="-200" y="1240" width="80" height="30" as="geometry" />
        </mxCell>
      </root>
    </mxGraphModel>
  </diagram>
</mxfile>
